<svg width="225" height="48" viewBox="0 0 225 48" fill="none" xmlns="http://www.w3.org/2000/svg">
<path fill-rule="evenodd" clip-rule="evenodd" d="M28.286 34.604C30.772 33.884 32.872 31.698 34.046 29.58C35.0777 27.6658 35.519 25.4888 35.314 23.324C35.2807 22.9882 35.2089 22.6574 35.1 22.338C35.048 22.166 35.486 21.582 35.658 21.352L35.71 21.284C36.762 19.8413 37.802 18.3893 38.83 16.928C39.0096 16.7001 39.1638 16.4533 39.29 16.192L39.404 16.088C39.448 16.036 39.436 16.0133 39.368 16.02C37.536 16.0973 35.6647 16.2087 33.754 16.354C33.1273 16.4047 32.4873 16.4247 31.834 16.414C31.7678 16.4135 31.702 16.4047 31.638 16.388C31.6006 16.3751 31.5679 16.3515 31.544 16.32C30.06 14.444 24.79 13.114 21.634 13.988C20.0873 14.3962 18.6447 15.1275 17.4013 16.1338C16.1578 17.1401 15.1417 18.3984 14.42 19.826C13.4315 21.9039 13.1195 24.2395 13.528 26.504C13.836 28.398 12.156 30.104 10.726 31.56C10.246 32.048 9.78201 32.504 9.44801 32.932C9.41601 32.992 9.43067 33.0173 9.49201 33.008C10.4413 32.9547 11.3893 32.8833 12.336 32.794C13.836 32.658 15.336 32.528 16.846 32.538C17.026 32.538 17.146 32.64 17.248 32.744L17.394 32.872C18.9596 33.968 20.754 34.6934 22.6414 34.9935C24.5288 35.2936 26.4597 35.1604 28.288 34.604M17.916 29.424C18.276 29.46 18.534 29.52 18.8 29.794C19.5516 30.541 20.4462 31.1286 21.4302 31.5219C22.4141 31.9151 23.4673 32.1059 24.5267 32.0827C25.5861 32.0596 26.63 31.823 27.5958 31.3871C28.5617 30.9513 29.4297 30.3251 30.148 29.546C30.9907 28.5857 31.5846 27.4331 31.8776 26.1896C32.1705 24.946 32.1535 23.6495 31.828 22.414C31.742 22.182 31.656 21.926 31.742 21.764L32.976 19.568C32.972 19.5554 32.964 19.5444 32.9532 19.5368C32.9423 19.5292 32.9292 19.5254 32.916 19.526C32.0968 19.6161 31.269 19.5932 30.456 19.458C30.114 19.388 29.926 19.184 29.72 18.968C28.7048 18.0457 27.4735 17.3942 26.1399 17.0736C24.8063 16.753 23.4135 16.7738 22.09 17.134C21.902 17.186 21.74 17.264 21.57 17.34L21.27 17.478C17.926 18.772 16.194 22.346 16.7 25.706C16.716 25.852 16.76 26.006 16.802 26.16C16.896 26.538 17 26.94 16.872 27.274C16.592 28.002 16.212 28.688 15.748 29.314C15.7455 29.3321 15.7494 29.3505 15.7588 29.3662C15.7683 29.3818 15.7828 29.3938 15.8 29.4C15.808 29.418 15.834 29.418 15.852 29.418C16.562 29.348 17.248 29.358 17.926 29.418L17.916 29.424Z" fill="#9747FF"/>
<path d="M11.572 19.714C12.1403 19.714 12.6854 19.4882 13.0873 19.0863C13.4892 18.6844 13.715 18.1393 13.715 17.571C13.715 17.0026 13.4892 16.4575 13.0873 16.0556C12.6854 15.6538 12.1403 15.428 11.572 15.428C11.0036 15.428 10.4585 15.6538 10.0567 16.0556C9.65477 16.4575 9.42899 17.0026 9.42899 17.571C9.42899 18.1393 9.65477 18.6844 10.0567 19.0863C10.4585 19.4882 11.0036 19.714 11.572 19.714Z" fill="#9747FF"/>
<path d="M65.0378 17.3636V21.4545H53.2125V17.3636H65.0378ZM55.8972 12.6591H61.3432V30.9659C61.3432 31.4687 61.4199 31.8608 61.5733 32.142C61.7267 32.4148 61.9398 32.6065 62.2125 32.7173C62.4938 32.8281 62.8176 32.8835 63.1841 32.8835C63.4398 32.8835 63.6955 32.8622 63.9512 32.8196C64.2069 32.7685 64.4029 32.7301 64.5392 32.7045L65.3958 36.7571C65.123 36.8423 64.7395 36.9403 64.2452 37.0511C63.7509 37.1705 63.15 37.2429 62.4426 37.2685C61.1301 37.3196 59.9796 37.1449 58.9909 36.7443C58.0108 36.3437 57.248 35.7216 56.7026 34.8778C56.1571 34.0341 55.8887 32.9687 55.8972 31.6818V12.6591ZM74.1848 37.3707C72.932 37.3707 71.8155 37.1534 70.8354 36.7188C69.8553 36.2756 69.0797 35.6236 68.5087 34.7628C67.9462 33.8935 67.665 32.8111 67.665 31.5156C67.665 30.4247 67.8652 29.5085 68.2658 28.767C68.6664 28.0256 69.2118 27.429 69.9022 26.9773C70.5925 26.5256 71.3766 26.1847 72.2544 25.9545C73.1408 25.7244 74.0698 25.5625 75.0414 25.4688C76.1834 25.3494 77.1039 25.2386 77.8027 25.1364C78.5016 25.0256 79.0087 24.8636 79.324 24.6506C79.6394 24.4375 79.7971 24.1222 79.7971 23.7045V23.6278C79.7971 22.8182 79.5414 22.1918 79.03 21.7486C78.5272 21.3054 77.8113 21.0838 76.8823 21.0838C75.9022 21.0838 75.1223 21.3011 74.5428 21.7358C73.9632 22.1619 73.5797 22.6989 73.3922 23.3466L68.3553 22.9375C68.611 21.7443 69.1138 20.7131 69.8638 19.8438C70.6138 18.9659 71.5811 18.2926 72.7658 17.8239C73.959 17.3466 75.3397 17.108 76.9078 17.108C77.9988 17.108 79.0428 17.2358 80.04 17.4915C81.0456 17.7472 81.9363 18.1435 82.7118 18.6804C83.4959 19.2173 84.1138 19.9077 84.5655 20.7514C85.0172 21.5866 85.2431 22.5881 85.2431 23.7557V37H80.0783V34.277H79.9249C79.6096 34.8906 79.1877 35.4318 78.6593 35.9006C78.1309 36.3608 77.4959 36.723 76.7544 36.9872C76.013 37.2429 75.1564 37.3707 74.1848 37.3707ZM75.7445 33.6122C76.5456 33.6122 77.253 33.4545 77.8667 33.1392C78.4803 32.8153 78.9618 32.3807 79.3113 31.8352C79.6607 31.2898 79.8354 30.6719 79.8354 29.9815V27.8977C79.665 28.0085 79.4306 28.1108 79.1323 28.2045C78.8425 28.2898 78.5144 28.3707 78.1479 28.4474C77.7814 28.5156 77.415 28.5795 77.0485 28.6392C76.682 28.6903 76.3496 28.7372 76.0513 28.7798C75.4121 28.8736 74.8539 29.0227 74.3766 29.2273C73.8993 29.4318 73.5286 29.7088 73.2644 30.0582C73.0002 30.3991 72.8681 30.8253 72.8681 31.3366C72.8681 32.0781 73.1365 32.6449 73.6735 33.0369C74.2189 33.4205 74.9093 33.6122 75.7445 33.6122ZM94.9142 10.8182V37H89.4682V10.8182H94.9142ZM104.211 31.3494L104.224 24.8168H105.017L111.307 17.3636H117.558L109.108 27.233H107.817L104.211 31.3494ZM99.2768 37V10.8182H104.723V37H99.2768ZM111.55 37L105.771 28.4474L109.402 24.5994L117.929 37H111.55ZM136.568 22.9631L131.582 23.2699C131.497 22.8437 131.314 22.4602 131.032 22.1193C130.751 21.7699 130.381 21.4929 129.92 21.2884C129.469 21.0753 128.927 20.9688 128.297 20.9688C127.453 20.9688 126.741 21.1477 126.162 21.5057C125.582 21.8551 125.292 22.3239 125.292 22.9119C125.292 23.3807 125.48 23.777 125.855 24.1009C126.23 24.4247 126.873 24.6847 127.785 24.8807L131.339 25.5966C133.248 25.9886 134.672 26.6193 135.609 27.4886C136.547 28.358 137.015 29.5 137.015 30.9148C137.015 32.2017 136.636 33.331 135.878 34.3026C135.128 35.2741 134.096 36.0327 132.784 36.5781C131.48 37.1151 129.976 37.3835 128.271 37.3835C125.672 37.3835 123.601 36.8423 122.058 35.7599C120.524 34.669 119.625 33.1861 119.361 31.3111L124.717 31.0298C124.879 31.8224 125.271 32.4276 125.893 32.8452C126.515 33.2543 127.312 33.4588 128.284 33.4588C129.238 33.4588 130.006 33.2756 130.585 32.9091C131.173 32.5341 131.471 32.0526 131.48 31.4645C131.471 30.9702 131.263 30.5653 130.854 30.25C130.444 29.9261 129.814 29.679 128.961 29.5085L125.561 28.831C123.643 28.4474 122.216 27.7827 121.278 26.8366C120.349 25.8906 119.885 24.6847 119.885 23.2188C119.885 21.9574 120.226 20.8707 120.907 19.9588C121.598 19.0469 122.565 18.3438 123.809 17.8494C125.062 17.3551 126.528 17.108 128.207 17.108C130.687 17.108 132.639 17.6321 134.062 18.6804C135.494 19.7287 136.329 21.1562 136.568 22.9631ZM140.445 44.3636V17.3636H145.814V20.6619H146.057C146.296 20.1335 146.641 19.5966 147.093 19.0511C147.553 18.4972 148.149 18.0369 148.882 17.6705C149.624 17.2955 150.544 17.108 151.644 17.108C153.075 17.108 154.396 17.483 155.607 18.233C156.817 18.9744 157.784 20.0952 158.509 21.5952C159.233 23.0866 159.595 24.9574 159.595 27.2074C159.595 29.3977 159.242 31.2472 158.534 32.7557C157.835 34.2557 156.881 35.3935 155.671 36.169C154.469 36.9361 153.122 37.3196 151.631 37.3196C150.574 37.3196 149.675 37.1449 148.933 36.7955C148.2 36.446 147.6 36.0071 147.131 35.4787C146.662 34.9418 146.304 34.4006 146.057 33.8551H145.891V44.3636H140.445ZM145.776 27.1818C145.776 28.3494 145.938 29.3679 146.262 30.2372C146.585 31.1065 147.054 31.7841 147.668 32.2699C148.281 32.7472 149.027 32.9858 149.905 32.9858C150.791 32.9858 151.541 32.7429 152.155 32.2571C152.769 31.7628 153.233 31.081 153.548 30.2116C153.872 29.3338 154.034 28.3239 154.034 27.1818C154.034 26.0483 153.877 25.0511 153.561 24.1903C153.246 23.3295 152.781 22.6562 152.168 22.1705C151.554 21.6847 150.8 21.4418 149.905 21.4418C149.019 21.4418 148.269 21.6761 147.655 22.1449C147.05 22.6136 146.585 23.2784 146.262 24.1392C145.938 25 145.776 26.0142 145.776 27.1818ZM168.825 37.3707C167.573 37.3707 166.456 37.1534 165.476 36.7188C164.496 36.2756 163.72 35.6236 163.149 34.7628C162.587 33.8935 162.306 32.8111 162.306 31.5156C162.306 30.4247 162.506 29.5085 162.906 28.767C163.307 28.0256 163.852 27.429 164.543 26.9773C165.233 26.5256 166.017 26.1847 166.895 25.9545C167.781 25.7244 168.71 25.5625 169.682 25.4688C170.824 25.3494 171.744 25.2386 172.443 25.1364C173.142 25.0256 173.649 24.8636 173.965 24.6506C174.28 24.4375 174.438 24.1222 174.438 23.7045V23.6278C174.438 22.8182 174.182 22.1918 173.671 21.7486C173.168 21.3054 172.452 21.0838 171.523 21.0838C170.543 21.0838 169.763 21.3011 169.183 21.7358C168.604 22.1619 168.22 22.6989 168.033 23.3466L162.996 22.9375C163.252 21.7443 163.754 20.7131 164.504 19.8438C165.254 18.9659 166.222 18.2926 167.406 17.8239C168.6 17.3466 169.98 17.108 171.548 17.108C172.639 17.108 173.683 17.2358 174.681 17.4915C175.686 17.7472 176.577 18.1435 177.352 18.6804C178.137 19.2173 178.754 19.9077 179.206 20.7514C179.658 21.5866 179.884 22.5881 179.884 23.7557V37H174.719V34.277H174.566C174.25 34.8906 173.828 35.4318 173.3 35.9006C172.771 36.3608 172.137 36.723 171.395 36.9872C170.654 37.2429 169.797 37.3707 168.825 37.3707ZM170.385 33.6122C171.186 33.6122 171.894 33.4545 172.507 33.1392C173.121 32.8153 173.602 32.3807 173.952 31.8352C174.301 31.2898 174.476 30.6719 174.476 29.9815V27.8977C174.306 28.0085 174.071 28.1108 173.773 28.2045C173.483 28.2898 173.155 28.3707 172.789 28.4474C172.422 28.5156 172.056 28.5795 171.689 28.6392C171.323 28.6903 170.99 28.7372 170.692 28.7798C170.053 28.8736 169.494 29.0227 169.017 29.2273C168.54 29.4318 168.169 29.7088 167.905 30.0582C167.641 30.3991 167.509 30.8253 167.509 31.3366C167.509 32.0781 167.777 32.6449 168.314 33.0369C168.86 33.4205 169.55 33.6122 170.385 33.6122ZM192.981 37.3835C190.97 37.3835 189.24 36.9574 187.791 36.1051C186.35 35.2443 185.242 34.0511 184.467 32.5256C183.7 31 183.316 29.2443 183.316 27.2585C183.316 25.2472 183.704 23.483 184.48 21.9659C185.264 20.4403 186.376 19.2514 187.816 18.3991C189.257 17.5384 190.97 17.108 192.955 17.108C194.669 17.108 196.169 17.419 197.455 18.0412C198.742 18.6634 199.761 19.5369 200.511 20.6619C201.261 21.7869 201.674 23.108 201.751 24.625H196.612C196.467 23.6449 196.083 22.8565 195.461 22.2599C194.847 21.6548 194.042 21.3523 193.045 21.3523C192.201 21.3523 191.464 21.5824 190.833 22.0426C190.211 22.4943 189.725 23.1548 189.376 24.0241C189.026 24.8935 188.852 25.946 188.852 27.1818C188.852 28.4347 189.022 29.5 189.363 30.3778C189.713 31.2557 190.203 31.9247 190.833 32.3849C191.464 32.8452 192.201 33.0753 193.045 33.0753C193.667 33.0753 194.225 32.9474 194.72 32.6918C195.222 32.4361 195.636 32.0653 195.96 31.5795C196.292 31.0852 196.509 30.4929 196.612 29.8026H201.751C201.666 31.3026 201.257 32.6236 200.524 33.7656C199.799 34.8991 198.798 35.7855 197.519 36.4247C196.241 37.0639 194.728 37.3835 192.981 37.3835ZM214.187 37.3835C212.167 37.3835 210.428 36.9744 208.971 36.1562C207.522 35.3295 206.405 34.1619 205.621 32.6534C204.837 31.1364 204.445 29.3423 204.445 27.2713C204.445 25.2514 204.837 23.4787 205.621 21.9531C206.405 20.4276 207.509 19.2386 208.932 18.3864C210.364 17.5341 212.043 17.108 213.969 17.108C215.265 17.108 216.471 17.3168 217.587 17.7344C218.712 18.1435 219.692 18.7614 220.528 19.5881C221.371 20.4148 222.028 21.4545 222.496 22.7074C222.965 23.9517 223.199 25.4091 223.199 27.0795V28.5753H206.618V25.2003H218.073C218.073 24.4162 217.903 23.7216 217.562 23.1165C217.221 22.5114 216.748 22.0384 216.143 21.6974C215.546 21.348 214.851 21.1733 214.059 21.1733C213.232 21.1733 212.499 21.3651 211.86 21.7486C211.229 22.1236 210.735 22.6307 210.377 23.2699C210.019 23.9006 209.836 24.6037 209.827 25.3793V28.5881C209.827 29.5597 210.006 30.3991 210.364 31.1065C210.731 31.8139 211.246 32.3594 211.911 32.7429C212.576 33.1264 213.364 33.3182 214.276 33.3182C214.881 33.3182 215.435 33.233 215.938 33.0625C216.441 32.892 216.871 32.6364 217.229 32.2955C217.587 31.9545 217.86 31.5369 218.047 31.0426L223.084 31.375C222.829 32.5852 222.305 33.642 221.512 34.5455C220.728 35.4403 219.714 36.1392 218.469 36.642C217.233 37.1364 215.806 37.3835 214.187 37.3835Z" fill="black"/>
</svg>
