<svg width="256" height="256" viewBox="0 0 256 256" fill="none" xmlns="http://www.w3.org/2000/svg">
<path d="M127.999 42.666C139.315 42.666 150.168 47.1612 158.169 55.1628C166.171 63.1643 170.666 74.0168 170.666 85.3327C170.666 96.6486 166.171 107.501 158.169 115.503C150.168 123.504 139.315 127.999 127.999 127.999C116.683 127.999 105.831 123.504 97.8295 115.503C89.8279 107.501 85.3327 96.6486 85.3327 85.3327C85.3327 74.0168 89.8279 63.1643 97.8295 55.1628C105.831 47.1612 116.683 42.666 127.999 42.666ZM127.999 149.333C175.146 149.333 213.333 168.426 213.333 191.999V213.333H42.666V191.999C42.666 168.426 80.8527 149.333 127.999 149.333Z" fill="#9747FF"/>
</svg>
